<svg width="23" height="32" viewBox="0 0 23 32" fill="none" xmlns="http://www.w3.org/2000/svg">
<path d="M21.2035 29.9437H20.6406C20.6406 29.9377 20.6379 29.9318 20.6367 29.9261L20.6213 29.8573C20.6114 29.812 20.6007 29.7671 20.5897 29.7226C20.585 29.7016 20.5798 29.6806 20.5747 29.6597C20.5601 29.6009 20.5447 29.5422 20.5289 29.4834L20.5242 29.4666C20.5068 29.4029 20.4886 29.3396 20.4697 29.2765L20.4507 29.2155C20.4377 29.172 20.4239 29.129 20.4113 29.086C20.4038 29.0624 20.3959 29.0392 20.3884 29.016C20.3746 28.9744 20.3603 28.9329 20.3457 28.8917C20.3382 28.87 20.3303 28.8479 20.3228 28.8266C20.3044 28.775 20.2855 28.7237 20.266 28.6728C20.2617 28.6619 20.2581 28.6515 20.2538 28.6406C20.2309 28.5807 20.2068 28.5212 20.1823 28.4617C20.1736 28.44 20.1646 28.4187 20.1555 28.3974C20.1389 28.3599 20.1223 28.3188 20.1053 28.2798L20.0734 28.2076C20.0568 28.1702 20.0398 28.1328 20.0224 28.0953C20.0118 28.0721 20.0007 28.0486 19.9897 28.0254C19.9695 27.9823 19.9502 27.9397 19.9277 27.8974C19.9194 27.8813 19.9119 27.8648 19.9036 27.8483C19.8756 27.7926 19.8468 27.7361 19.8176 27.6822L19.7781 27.6122L19.7224 27.5108L19.679 27.4359C19.6608 27.4045 19.6427 27.373 19.6241 27.3416C19.6095 27.3162 19.5945 27.2907 19.5795 27.2668C19.559 27.2327 19.5401 27.1994 19.5176 27.1657L19.4607 27.0744C19.4339 27.0325 19.407 26.9902 19.3794 26.9487C19.362 26.9225 19.3447 26.8966 19.3269 26.8708C19.3091 26.845 19.2898 26.8154 19.2708 26.7881C19.2519 26.7608 19.2314 26.7335 19.214 26.7065C19.1966 26.6796 19.1777 26.6553 19.1591 26.6317C19.1406 26.6081 19.1196 26.5767 19.0995 26.5493L19.0439 26.4745C19.0044 26.4247 18.9681 26.3749 18.9294 26.3248L18.8753 26.2563C18.8524 26.2275 18.8287 26.199 18.8054 26.1706L18.7533 26.1077C18.7292 26.0789 18.7048 26.0505 18.6803 26.0217L18.629 25.9625L18.5524 25.8757L18.507 25.8256C18.4127 25.7219 18.3159 25.6197 18.2169 25.5202L18.1734 25.4764L18.0826 25.3877L18.038 25.345C18.0065 25.3147 17.9749 25.2848 17.9429 25.2552L17.9101 25.2253C17.7984 25.1224 17.6836 25.0221 17.5667 24.9259L17.5347 24.8993C17.4987 24.8694 17.4624 24.8398 17.4258 24.8106L17.3895 24.7814C17.35 24.7515 17.3141 24.7219 17.2758 24.6923L17.2564 24.6777C17.1273 24.5789 16.9951 24.4828 16.8617 24.3903L16.8431 24.3772C16.8009 24.3484 16.7587 24.32 16.716 24.2919L16.688 24.2736C16.6446 24.2447 16.6008 24.2167 16.5569 24.1886L16.5494 24.1841C16.4042 24.0921 16.2561 24.0039 16.1053 23.9195L16.0994 23.9158C16.0517 23.8892 16.0039 23.8634 15.9561 23.8376L15.9352 23.8263C15.681 23.6904 15.4199 23.5656 15.152 23.4521L15.1354 23.445C15.0648 23.415 14.9937 23.3862 14.9219 23.3578H16.3347C16.5648 23.3578 16.7515 23.1067 16.7515 22.7964C16.7515 22.4862 16.5648 22.2351 16.3347 22.2351H15.9139C15.9399 22.1722 15.9688 22.1011 15.9999 22.021C16.3979 21.786 17.0981 21.2852 17.7929 20.3653L17.7984 20.3582C17.8511 20.2894 17.9028 20.2181 17.9536 20.1445L17.9638 20.1299C18.0144 20.0577 18.0649 19.9832 18.1146 19.9054L18.128 19.8848C18.1517 19.8474 18.1754 19.81 18.1991 19.7725C18.1991 19.7725 18.1991 19.7695 18.2019 19.7677C18.2263 19.7302 18.2504 19.6891 18.2745 19.649L18.2899 19.6232C18.3104 19.5888 18.3313 19.5536 18.3515 19.5181C18.3554 19.5117 18.3594 19.5053 18.3629 19.4986C18.3862 19.4582 18.4095 19.417 18.4324 19.3755L18.4482 19.3466C18.4671 19.3122 18.4857 19.2774 18.5042 19.2422C18.5098 19.2325 18.5153 19.2224 18.5204 19.2123C18.5425 19.17 18.5646 19.1273 18.5867 19.0839L18.6021 19.0536C18.6195 19.0184 18.6373 18.9825 18.6546 18.9466L18.6736 18.9092C18.6949 18.865 18.7158 18.8201 18.7367 18.7748L18.7498 18.746C18.7671 18.7086 18.7841 18.6711 18.8011 18.6337L18.8212 18.5888C18.841 18.5435 18.8607 18.4979 18.8796 18.4518C18.8832 18.4436 18.8867 18.435 18.8899 18.4268C18.9077 18.3845 18.925 18.3414 18.9424 18.298L18.9621 18.2486C18.9783 18.2074 18.9945 18.1659 19.0103 18.1244L19.0221 18.0929C19.0407 18.0435 19.0589 17.993 19.077 17.9432L19.096 17.8901C19.1102 17.8504 19.124 17.81 19.1378 17.7696C19.1429 17.7546 19.1481 17.7396 19.1528 17.7247C19.1702 17.673 19.1875 17.6203 19.2045 17.5675C19.21 17.5492 19.216 17.5301 19.2215 17.5128L19.261 17.3897C19.2661 17.3718 19.2716 17.3523 19.2768 17.3362C19.2929 17.2819 19.3091 17.2266 19.3245 17.1708C19.3297 17.1532 19.3344 17.1352 19.3391 17.1173C19.351 17.0742 19.3628 17.0312 19.3743 16.9874C19.3794 16.9676 19.3845 16.9477 19.3901 16.9279C19.4047 16.8703 19.4193 16.8123 19.4335 16.7535L19.4453 16.7045C19.4564 16.6577 19.4674 16.6105 19.4781 16.563L19.4923 16.4994C19.5057 16.4384 19.5191 16.3774 19.5318 16.3153C19.5345 16.3033 19.5369 16.2909 19.5393 16.2778C19.5503 16.2243 19.561 16.1701 19.5712 16.1158C19.5756 16.0937 19.5795 16.0716 19.5839 16.0496C19.5941 15.9938 19.604 15.9373 19.6139 15.8815C19.6159 15.8695 19.6182 15.8579 19.6202 15.8463C19.6312 15.7805 19.642 15.7141 19.6526 15.6472C19.6561 15.6248 19.6597 15.6023 19.6628 15.5795C19.6711 15.5252 19.679 15.4706 19.6869 15.4152L19.694 15.3643C19.7035 15.2955 19.7126 15.2262 19.7212 15.1559C19.724 15.1338 19.7264 15.1117 19.7291 15.0892C19.736 15.0334 19.7423 14.9772 19.7481 14.9208C19.7505 14.9006 19.7528 14.8808 19.7548 14.8606C19.7624 14.7882 19.7695 14.7153 19.7761 14.6417C19.7761 14.6211 19.7797 14.6005 19.7813 14.5795C19.7864 14.5204 19.7915 14.4609 19.7959 14.401C19.7959 14.3789 19.7994 14.3569 19.801 14.3348C19.8065 14.2584 19.8116 14.1816 19.8164 14.1042C19.8164 14.0867 19.8164 14.0668 19.8191 14.0511C19.8227 13.9867 19.8263 13.922 19.829 13.8569C19.829 13.8333 19.829 13.8097 19.8322 13.7861C19.8353 13.7057 19.8385 13.6248 19.8409 13.5429C19.8409 13.5316 19.8409 13.52 19.8409 13.5084C19.843 13.4356 19.8445 13.362 19.8456 13.2876C19.8456 13.2633 19.8456 13.239 19.8456 13.2147C19.8456 13.1348 19.8456 13.0545 19.8456 12.9737V12.9549C19.8456 12.8689 19.8456 12.7817 19.8456 12.693V12.6181C19.8456 12.5433 19.8424 12.4647 19.8405 12.3868V12.3445C19.8377 12.2547 19.8341 12.1638 19.8306 12.0725C19.8306 12.0489 19.8282 12.0249 19.8274 12.0014C19.824 11.9245 19.8201 11.8472 19.8156 11.7693C19.8156 11.7502 19.8156 11.7319 19.8124 11.7113C19.8069 11.6178 19.8009 11.5235 19.7943 11.4284L19.7895 11.3622C19.7836 11.2828 19.7777 11.2031 19.771 11.1226C19.771 11.0994 19.7674 11.0762 19.7655 11.053C19.7572 10.9557 19.7481 10.8573 19.7386 10.7585C19.7386 10.7398 19.7347 10.7211 19.7331 10.702C19.7248 10.6178 19.7157 10.5328 19.7066 10.4471C19.7039 10.4213 19.7011 10.3959 19.698 10.37C19.6869 10.2682 19.6751 10.1661 19.6624 10.0624C19.6624 10.0497 19.6589 10.037 19.6573 10.025C19.646 9.93217 19.634 9.83886 19.6214 9.74505C19.6174 9.71736 19.6139 9.68966 19.6099 9.66197C19.5952 9.55569 19.5801 9.44852 19.5645 9.34049C17.9855 -1.31572 6.79596 0.413656 6.79596 0.413656L7.1544 2.70328L0.387207 9.48083L0.682874 12.0979L3.24638 13.5949C3.36066 13.3195 3.50738 13.0573 3.68376 12.8131C5.33776 11.0044 8.54668 9.5845 9.46526 9.28997C9.64921 9.23121 9.75382 9.20165 9.75382 9.20165C5.35987 14.593 5.85962 20.7695 6.05541 22.2418C5.85172 22.2792 5.69422 22.5124 5.69422 22.7968C5.69422 23.1067 5.88094 23.3582 6.11107 23.3582H7.52388C5.1742 24.2906 3.30906 26.0665 2.33569 28.2982C2.33454 28.3012 2.33323 28.3042 2.33174 28.3072C2.2599 28.4728 2.19306 28.6409 2.13121 28.8113C2.13132 28.813 2.13132 28.8148 2.13121 28.8165C2.11463 28.8629 2.09845 28.9093 2.08266 28.9561C2.07674 28.9729 2.07081 28.9898 2.06529 29.007C2.05108 29.0489 2.03792 29.0912 2.02581 29.1339C2.01871 29.1556 2.012 29.1777 2.00528 29.1994C1.99265 29.2394 1.98042 29.2798 1.96858 29.3202L1.94726 29.3951C1.9362 29.4325 1.92515 29.4726 1.91489 29.5115C1.90739 29.5392 1.90028 29.5665 1.89318 29.5942C1.8837 29.6316 1.87384 29.669 1.86476 29.7065C1.85568 29.7439 1.84699 29.7813 1.83831 29.821C1.82962 29.8606 1.81857 29.9071 1.8091 29.9505H1.24579C1.13746 29.9482 1.02976 29.9665 0.928985 30.0042C0.828213 30.0419 0.736407 30.0984 0.658954 30.1702C0.581501 30.242 0.519957 30.3278 0.477944 30.4225C0.43593 30.5172 0.414288 30.6189 0.414288 30.7216C0.414288 30.8243 0.43593 30.926 0.477944 31.0207C0.519957 31.1154 0.581501 31.2011 0.658954 31.273C0.736407 31.3448 0.828213 31.4012 0.928985 31.439C1.02976 31.4767 1.13746 31.495 1.24579 31.4927H21.2106C21.319 31.495 21.4267 31.4767 21.5274 31.439C21.6282 31.4012 21.72 31.3448 21.7975 31.273C21.8749 31.2011 21.9365 31.1154 21.9785 31.0207C22.0205 30.926 22.0421 30.8243 22.0421 30.7216C22.0421 30.6189 22.0205 30.5172 21.9785 30.4225C21.9365 30.3278 21.8749 30.242 21.7975 30.1702C21.72 30.0984 21.6282 30.0419 21.5274 30.0042C21.4267 29.9665 21.319 29.9482 21.2106 29.9505L21.2035 29.9437Z" fill="#595653"/>
</svg>
